<svg width="87" height="52" viewBox="0 0 87 52" fill="none" xmlns="http://www.w3.org/2000/svg">
<path d="M7.26234 25.0923H6.15439C6.11177 24.8556 6.03246 24.6473 5.91646 24.4673C5.80046 24.2874 5.65841 24.1347 5.49032 24.0092C5.32224 23.8838 5.13403 23.7891 4.92569 23.7251C4.71973 23.6612 4.50074 23.6293 4.26873 23.6293C3.8497 23.6293 3.47446 23.7346 3.14302 23.9453C2.81395 24.156 2.55353 24.465 2.36177 24.8722C2.17238 25.2794 2.07768 25.7765 2.07768 26.3636C2.07768 26.9555 2.17238 27.455 2.36177 27.8622C2.55353 28.2694 2.81513 28.5772 3.14657 28.7855C3.47801 28.9938 3.85088 29.098 4.26518 29.098C4.49482 29.098 4.71262 29.0672 4.91859 29.0057C5.12692 28.9418 5.31513 28.8482 5.48322 28.7251C5.65131 28.602 5.79335 28.4517 5.90936 28.2741C6.02773 28.0942 6.1094 27.8883 6.15439 27.6562L7.26234 27.6598C7.20315 28.0173 7.08833 28.3464 6.91788 28.647C6.74979 28.9453 6.53317 29.2034 6.26802 29.4212C6.00524 29.6366 5.70458 29.8035 5.36603 29.9219C5.02749 30.0402 4.65817 30.0994 4.25808 30.0994C3.62834 30.0994 3.06726 29.9503 2.57484 29.652C2.08242 29.3513 1.69416 28.9216 1.41007 28.3629C1.12834 27.8042 0.987482 27.1378 0.987482 26.3636C0.987482 25.5871 1.12953 24.9207 1.41362 24.3643C1.69771 23.8056 2.08597 23.3771 2.57839 23.0788C3.07082 22.7782 3.63071 22.6278 4.25808 22.6278C4.64397 22.6278 5.00382 22.6835 5.33762 22.7947C5.6738 22.9036 5.97565 23.0646 6.24316 23.2777C6.51068 23.4884 6.73204 23.7464 6.90723 24.0518C7.08242 24.3549 7.20079 24.7017 7.26234 25.0923ZM16.8928 26.3636C16.8928 27.1402 16.7508 27.8078 16.4667 28.3665C16.1826 28.9228 15.7932 29.3513 15.2984 29.652C14.806 29.9503 14.2461 30.0994 13.6187 30.0994C12.989 30.0994 12.4267 29.9503 11.9319 29.652C11.4395 29.3513 11.0512 28.9216 10.7671 28.3629C10.483 27.8042 10.341 27.1378 10.341 26.3636C10.341 25.5871 10.483 24.9207 10.7671 24.3643C11.0512 23.8056 11.4395 23.3771 11.9319 23.0788C12.4267 22.7782 12.989 22.6278 13.6187 22.6278C14.2461 22.6278 14.806 22.7782 15.2984 23.0788C15.7932 23.3771 16.1826 23.8056 16.4667 24.3643C16.7508 24.9207 16.8928 25.5871 16.8928 26.3636ZM15.8062 26.3636C15.8062 25.7718 15.7103 25.2734 15.5186 24.8686C15.3292 24.4614 15.0687 24.1536 14.7373 23.9453C14.4082 23.7346 14.0354 23.6293 13.6187 23.6293C13.1997 23.6293 12.8256 23.7346 12.4965 23.9453C12.1675 24.1536 11.907 24.4614 11.7153 24.8686C11.5259 25.2734 11.4312 25.7718 11.4312 26.3636C11.4312 26.9555 11.5259 27.455 11.7153 27.8622C11.907 28.267 12.1675 28.5748 12.4965 28.7855C12.8256 28.9938 13.1997 29.098 13.6187 29.098C14.0354 29.098 14.4082 28.9938 14.7373 28.7855C15.0687 28.5748 15.3292 28.267 15.5186 27.8622C15.7103 27.455 15.8062 26.9555 15.8062 26.3636ZM20.2609 22.7273H21.5926L23.9079 28.3807H23.9932L26.3085 22.7273H27.6402V30H26.5961V24.7372H26.5287L24.3838 29.9893H23.5173L21.3724 24.7337H21.305V30H20.2609V22.7273ZM31.2355 22.7273H32.5672L34.8825 28.3807H34.9678L37.2831 22.7273H38.6148V30H37.5708V24.7372H37.5033L35.3584 29.9893H34.4919L32.347 24.7337H32.2796V30H31.2355V22.7273ZM42.2101 30V22.7273H46.7698V23.6719H43.3074V25.8878H46.5319V26.8288H43.3074V29.0554H46.8124V30H42.2101ZM50.2355 30V22.7273H52.8279C53.3913 22.7273 53.8589 22.8243 54.2306 23.0185C54.6046 23.2126 54.884 23.4813 55.0686 23.8246C55.2533 24.1655 55.3456 24.5597 55.3456 25.0071C55.3456 25.4522 55.2521 25.844 55.0651 26.1825C54.8804 26.5187 54.6011 26.7803 54.227 26.9673C53.8553 27.1544 53.3878 27.2479 52.8243 27.2479H50.8605V26.3033H52.7249C53.08 26.3033 53.3688 26.2524 53.5914 26.1506C53.8163 26.0488 53.9808 25.9008 54.085 25.7067C54.1891 25.5125 54.2412 25.2794 54.2412 25.0071C54.2412 24.7325 54.1879 24.4946 54.0814 24.2933C53.9772 24.0921 53.8127 23.9382 53.5878 23.8317C53.3653 23.7228 53.0729 23.6683 52.7107 23.6683H51.3328V30H50.2355ZM53.8257 26.7188L55.6226 30H54.3726L52.6112 26.7188H53.8257ZM64.7213 25.0923H63.6134C63.5708 24.8556 63.4914 24.6473 63.3754 24.4673C63.2594 24.2874 63.1174 24.1347 62.9493 24.0092C62.7812 23.8838 62.593 23.7891 62.3847 23.7251C62.1787 23.6612 61.9597 23.6293 61.7277 23.6293C61.3087 23.6293 60.9334 23.7346 60.602 23.9453C60.2729 24.156 60.0125 24.465 59.8208 24.8722C59.6314 25.2794 59.5367 25.7765 59.5367 26.3636C59.5367 26.9555 59.6314 27.455 59.8208 27.8622C60.0125 28.2694 60.2741 28.5772 60.6056 28.7855C60.937 28.9938 61.3099 29.098 61.7242 29.098C61.9538 29.098 62.1716 29.0672 62.3776 29.0057C62.5859 28.9418 62.7741 28.8482 62.9422 28.7251C63.1103 28.602 63.2523 28.4517 63.3683 28.2741C63.4867 28.0942 63.5684 27.8883 63.6134 27.6562L64.7213 27.6598C64.6621 28.0173 64.5473 28.3464 64.3769 28.647C64.2088 28.9453 63.9922 29.2034 63.727 29.4212C63.4642 29.6366 63.1636 29.8035 62.825 29.9219C62.4865 30.0402 62.1172 30.0994 61.7171 30.0994C61.0873 30.0994 60.5262 29.9503 60.0338 29.652C59.5414 29.3513 59.1531 28.9216 58.8691 28.3629C58.5873 27.8042 58.4465 27.1378 58.4465 26.3636C58.4465 25.5871 58.5885 24.9207 58.8726 24.3643C59.1567 23.8056 59.545 23.3771 60.0374 23.0788C60.5298 22.7782 61.0897 22.6278 61.7171 22.6278C62.103 22.6278 62.4628 22.6835 62.7966 22.7947C63.1328 22.9036 63.4346 23.0646 63.7021 23.2777C63.9697 23.4884 64.191 23.7464 64.3662 24.0518C64.5414 24.3549 64.6598 24.7017 64.7213 25.0923ZM69.1317 22.7273V30H68.0344V22.7273H69.1317ZM73.344 30H72.1792L74.7964 22.7273H76.0642L78.6814 30H77.5166L75.4605 24.0483H75.4037L73.344 30ZM73.5393 27.152H77.3177V28.0753H73.5393V27.152ZM81.7316 30V22.7273H82.8289V29.0554H86.1244V30H81.7316Z" fill="white"/>
<path d="M50.1865 9.52985L42.2026 1L34 10M38.7899 4.90463L45.7834 4.90477" stroke="#870864" stroke-width="1.5" stroke-linejoin="round"/>
<path d="M57.9512 51L50.0767 42L43.1865 50.5299L39.1946 46.2649L35.2026 42L31.1013 46.5L27 51" stroke="#870864" stroke-width="1.5" stroke-linejoin="round"/>
</svg>
