<svg width="61" height="52" viewBox="0 0 61 52" fill="none" xmlns="http://www.w3.org/2000/svg">
<path d="M6.99379 25.0923H5.88583C5.84322 24.8556 5.76391 24.6473 5.6479 24.4673C5.5319 24.2874 5.38986 24.1347 5.22177 24.0092C5.05368 23.8838 4.86547 23.7891 4.65714 23.7251C4.45117 23.6612 4.23219 23.6293 4.00018 23.6293C3.58114 23.6293 3.20591 23.7346 2.87447 23.9453C2.5454 24.156 2.28498 24.465 2.09322 24.8722C1.90382 25.2794 1.80913 25.7765 1.80913 26.3636C1.80913 26.9555 1.90382 27.455 2.09322 27.8622C2.28498 28.2694 2.54658 28.5772 2.87802 28.7855C3.20946 28.9938 3.58233 29.098 3.99663 29.098C4.22627 29.098 4.44407 29.0672 4.65004 29.0057C4.85837 28.9418 5.04658 28.8482 5.21467 28.7251C5.38275 28.602 5.5248 28.4517 5.6408 28.2741C5.75917 28.0942 5.84085 27.8883 5.88583 27.6562L6.99379 27.6598C6.9346 28.0173 6.81978 28.3464 6.64933 28.647C6.48124 28.9453 6.26462 29.2034 5.99947 29.4212C5.73668 29.6366 5.43602 29.8035 5.09748 29.9219C4.75894 30.0402 4.38962 30.0994 3.98952 30.0994C3.35979 30.0994 2.79871 29.9503 2.30629 29.652C1.81386 29.3513 1.4256 28.9216 1.14151 28.3629C0.859789 27.8042 0.718928 27.1378 0.718928 26.3636C0.718928 25.5871 0.860973 24.9207 1.14506 24.3643C1.42915 23.8056 1.81741 23.3771 2.30984 23.0788C2.80226 22.7782 3.36216 22.6278 3.98952 22.6278C4.37541 22.6278 4.73526 22.6835 5.06907 22.7947C5.40524 22.9036 5.70709 23.0646 5.97461 23.2777C6.24213 23.4884 6.46348 23.7464 6.63867 24.0518C6.81386 24.3549 6.93223 24.7017 6.99379 25.0923ZM16.6243 26.3636C16.6243 27.1402 16.4822 27.8078 16.1982 28.3665C15.9141 28.9228 15.5246 29.3513 15.0298 29.652C14.5374 29.9503 13.9775 30.0994 13.3501 30.0994C12.7204 30.0994 12.1581 29.9503 11.6634 29.652C11.1709 29.3513 10.7827 28.9216 10.4986 28.3629C10.2145 27.8042 10.0724 27.1378 10.0724 26.3636C10.0724 25.5871 10.2145 24.9207 10.4986 24.3643C10.7827 23.8056 11.1709 23.3771 11.6634 23.0788C12.1581 22.7782 12.7204 22.6278 13.3501 22.6278C13.9775 22.6278 14.5374 22.7782 15.0298 23.0788C15.5246 23.3771 15.9141 23.8056 16.1982 24.3643C16.4822 24.9207 16.6243 25.5871 16.6243 26.3636ZM15.5376 26.3636C15.5376 25.7718 15.4418 25.2734 15.25 24.8686C15.0606 24.4614 14.8002 24.1536 14.4688 23.9453C14.1397 23.7346 13.7668 23.6293 13.3501 23.6293C12.9311 23.6293 12.5571 23.7346 12.228 23.9453C11.8989 24.1536 11.6385 24.4614 11.4467 24.8686C11.2573 25.2734 11.1626 25.7718 11.1626 26.3636C11.1626 26.9555 11.2573 27.455 11.4467 27.8622C11.6385 28.267 11.8989 28.5748 12.228 28.7855C12.5571 28.9938 12.9311 29.098 13.3501 29.098C13.7668 29.098 14.1397 28.9938 14.4688 28.7855C14.8002 28.5748 15.0606 28.267 15.25 27.8622C15.4418 27.455 15.5376 26.9555 15.5376 26.3636ZM25.8624 22.7273V30H24.8539L21.1571 24.6662H21.0897V30H19.9924V22.7273H21.008L24.7083 28.0682H24.7757V22.7273H25.8624ZM29.1044 23.6719V22.7273H34.733V23.6719H32.4638V30H31.37V23.6719H29.1044ZM37.7317 30H36.5669L39.1841 22.7273H40.4519L43.0691 30H41.9043L39.8482 24.0483H39.7914L37.7317 30ZM37.927 27.152H41.7054V28.0753H37.927V27.152ZM51.818 25.0923H50.71C50.6674 24.8556 50.5881 24.6473 50.4721 24.4673C50.3561 24.2874 50.2141 24.1347 50.046 24.0092C49.8779 23.8838 49.6897 23.7891 49.4814 23.7251C49.2754 23.6612 49.0564 23.6293 48.8244 23.6293C48.4054 23.6293 48.0301 23.7346 47.6987 23.9453C47.3696 24.156 47.1092 24.465 46.9174 24.8722C46.728 25.2794 46.6333 25.7765 46.6333 26.3636C46.6333 26.9555 46.728 27.455 46.9174 27.8622C47.1092 28.2694 47.3708 28.5772 47.7022 28.7855C48.0337 28.9938 48.4065 29.098 48.8208 29.098C49.0505 29.098 49.2683 29.0672 49.4743 29.0057C49.6826 28.9418 49.8708 28.8482 50.0389 28.7251C50.207 28.602 50.349 28.4517 50.465 28.2741C50.5834 28.0942 50.6651 27.8883 50.71 27.6562L51.818 27.6598C51.7588 28.0173 51.644 28.3464 51.4735 28.647C51.3055 28.9453 51.0888 29.2034 50.8237 29.4212C50.5609 29.6366 50.2602 29.8035 49.9217 29.9219C49.5832 30.0402 49.2138 30.0994 48.8137 30.0994C48.184 30.0994 47.6229 29.9503 47.1305 29.652C46.6381 29.3513 46.2498 28.9216 45.9657 28.3629C45.684 27.8042 45.5431 27.1378 45.5431 26.3636C45.5431 25.5871 45.6852 24.9207 45.9693 24.3643C46.2534 23.8056 46.6416 23.3771 47.1341 23.0788C47.6265 22.7782 48.1864 22.6278 48.8137 22.6278C49.1996 22.6278 49.5595 22.6835 49.8933 22.7947C50.2295 22.9036 50.5313 23.0646 50.7988 23.2777C51.0663 23.4884 51.2877 23.7464 51.4629 24.0518C51.6381 24.3549 51.7565 24.7017 51.818 25.0923ZM54.7724 23.6719V22.7273H60.4009V23.6719H58.1317V30H57.038V23.6719H54.7724Z" fill="white"/>
<path d="M37.1865 9.52985L29.2026 1L21 10M25.7899 4.90463L32.7834 4.90477" stroke="#1EB8E9" stroke-width="1.5" stroke-linejoin="round"/>
<path d="M44.9512 51L37.0767 42L30.1865 50.5299L26.1946 46.2649L22.2026 42L18.1013 46.5L14 51" stroke="#1EB8E9" stroke-width="1.5" stroke-linejoin="round"/>
</svg>
