<svg width="80" height="52" viewBox="0 0 80 52" fill="none" xmlns="http://www.w3.org/2000/svg">
<path d="M1.23748 30V22.7273H5.79714V23.6719H2.33478V25.8878H5.55922V26.8288H2.33478V29.0554H5.83976V30H1.23748ZM10.0264 22.7273L11.7664 25.5717H11.8232L13.5633 22.7273H14.8346L12.569 26.3636L14.8488 30H13.5704L11.8232 27.1946H11.7664L10.0193 30H8.74086L11.0597 26.3636L8.75506 22.7273H10.0264ZM17.923 30V22.7273H20.5154C21.0812 22.7273 21.5499 22.8303 21.9216 23.0362C22.2933 23.2422 22.5715 23.5239 22.7561 23.8814C22.9408 24.2365 23.0331 24.6366 23.0331 25.0817C23.0331 25.5291 22.9396 25.9316 22.7526 26.2891C22.5679 26.6442 22.2886 26.9259 21.9145 27.1342C21.5428 27.3402 21.0753 27.4432 20.5118 27.4432H18.7291V26.5128H20.4124C20.7699 26.5128 21.0599 26.4512 21.2824 26.3281C21.5049 26.2027 21.6683 26.0322 21.7725 25.8168C21.8766 25.6013 21.9287 25.3563 21.9287 25.0817C21.9287 24.8071 21.8766 24.5632 21.7725 24.3501C21.6683 24.1371 21.5038 23.9702 21.2789 23.8494C21.0563 23.7287 20.7628 23.6683 20.3982 23.6683H19.0203V30H17.923ZM26.3195 30V22.7273H30.8792V23.6719H27.4168V25.8878H30.6412V26.8288H27.4168V29.0554H30.9218V30H26.3195ZM34.3449 30V22.7273H36.9372C37.5007 22.7273 37.9682 22.8243 38.3399 23.0185C38.714 23.2126 38.9933 23.4813 39.178 23.8246C39.3627 24.1655 39.455 24.5597 39.455 25.0071C39.455 25.4522 39.3615 25.844 39.1744 26.1825C38.9898 26.5187 38.7104 26.7803 38.3364 26.9673C37.9647 27.1544 37.4971 27.2479 36.9337 27.2479H34.9699V26.3033H36.8343C37.1894 26.3033 37.4782 26.2524 37.7007 26.1506C37.9256 26.0488 38.0902 25.9008 38.1943 25.7067C38.2985 25.5125 38.3506 25.2794 38.3506 25.0071C38.3506 24.7325 38.2973 24.4946 38.1908 24.2933C38.0866 24.0921 37.9221 23.9382 37.6972 23.8317C37.4746 23.7228 37.1823 23.6683 36.82 23.6683H35.4422V30H34.3449ZM37.9351 26.7188L39.732 30H38.482L36.7206 26.7188H37.9351ZM43.8875 22.7273V30H42.7902V22.7273H43.8875ZM47.4855 30V22.7273H52.0452V23.6719H48.5828V25.8878H51.8073V26.8288H48.5828V29.0554H52.0878V30H47.4855ZM61.3809 22.7273V30H60.3724L56.6757 24.6662H56.6082V30H55.5109V22.7273H56.5265L60.2268 28.0682H60.2943V22.7273H61.3809ZM71.0221 25.0923H69.9142C69.8715 24.8556 69.7922 24.6473 69.6762 24.4673C69.5602 24.2874 69.4182 24.1347 69.2501 24.0092C69.082 23.8838 68.8938 23.7891 68.6855 23.7251C68.4795 23.6612 68.2605 23.6293 68.0285 23.6293C67.6095 23.6293 67.2342 23.7346 66.9028 23.9453C66.5737 24.156 66.3133 24.465 66.1215 24.8722C65.9321 25.2794 65.8374 25.7765 65.8374 26.3636C65.8374 26.9555 65.9321 27.455 66.1215 27.8622C66.3133 28.2694 66.5749 28.5772 66.9063 28.7855C67.2378 28.9938 67.6106 29.098 68.0249 29.098C68.2546 29.098 68.4724 29.0672 68.6784 29.0057C68.8867 28.9418 69.0749 28.8482 69.243 28.7251C69.4111 28.602 69.5531 28.4517 69.6691 28.2741C69.7875 28.0942 69.8692 27.8883 69.9142 27.6562L71.0221 27.6598C70.9629 28.0173 70.8481 28.3464 70.6776 28.647C70.5096 28.9453 70.2929 29.2034 70.0278 29.4212C69.765 29.6366 69.4643 29.8035 69.1258 29.9219C68.7873 30.0402 68.4179 30.0994 68.0178 30.0994C67.3881 30.0994 66.827 29.9503 66.3346 29.652C65.8422 29.3513 65.4539 28.9216 65.1698 28.3629C64.8881 27.8042 64.7472 27.1378 64.7472 26.3636C64.7472 25.5871 64.8893 24.9207 65.1734 24.3643C65.4575 23.8056 65.8457 23.3771 66.3382 23.0788C66.8306 22.7782 67.3905 22.6278 68.0178 22.6278C68.4037 22.6278 68.7636 22.6835 69.0974 22.7947C69.4336 22.9036 69.7354 23.0646 70.0029 23.2777C70.2704 23.4884 70.4918 23.7464 70.667 24.0518C70.8422 24.3549 70.9606 24.7017 71.0221 25.0923ZM74.3351 30V22.7273H78.8948V23.6719H75.4324V25.8878H78.6569V26.8288H75.4324V29.0554H78.9374V30H74.3351Z" fill="white"/>
<path d="M47.1865 9.52985L39.2026 1L31 10M35.7899 4.90463L42.7834 4.90477" stroke="#870864" stroke-width="1.5" stroke-linejoin="round"/>
<path d="M54.9512 51L47.0767 42L40.1865 50.5299L36.1946 46.2649L32.2026 42L28.1013 46.5L24 51" stroke="#870864" stroke-width="1.5" stroke-linejoin="round"/>
</svg>
