<svg width="90" height="52" viewBox="0 0 90 52" fill="none" xmlns="http://www.w3.org/2000/svg">
<path d="M0.965021 30V22.7273H5.52468V23.6719H2.06232V25.8878H5.28675V26.8288H2.06232V29.0554H5.56729V30H0.965021ZM9.75391 22.7273L11.494 25.5717H11.5508L13.2908 22.7273H14.5621L12.2965 26.3636L14.5763 30H13.2979L11.5508 27.1946H11.494L9.7468 30H8.46839L10.7873 26.3636L8.4826 22.7273H9.75391ZM17.6506 30V22.7273H20.2429C20.8087 22.7273 21.2775 22.8303 21.6491 23.0362C22.0208 23.2422 22.299 23.5239 22.4837 23.8814C22.6683 24.2365 22.7607 24.6366 22.7607 25.0817C22.7607 25.5291 22.6671 25.9316 22.4801 26.2891C22.2955 26.6442 22.0161 26.9259 21.642 27.1342C21.2704 27.3402 20.8028 27.4432 20.2393 27.4432H18.4567V26.5128H20.1399C20.4974 26.5128 20.7874 26.4512 21.0099 26.3281C21.2325 26.2027 21.3958 26.0322 21.5 25.8168C21.6042 25.6013 21.6562 25.3563 21.6562 25.0817C21.6562 24.8071 21.6042 24.5632 21.5 24.3501C21.3958 24.1371 21.2313 23.9702 21.0064 23.8494C20.7839 23.7287 20.4903 23.6683 20.1257 23.6683H18.7479V30H17.6506ZM26.0471 30V22.7273H30.6067V23.6719H27.1444V25.8878H30.3688V26.8288H27.1444V29.0554H30.6493V30H26.0471ZM34.0724 30V22.7273H36.6648C37.2282 22.7273 37.6958 22.8243 38.0675 23.0185C38.4415 23.2126 38.7209 23.4813 38.9055 23.8246C39.0902 24.1655 39.1825 24.5597 39.1825 25.0071C39.1825 25.4522 39.089 25.844 38.902 26.1825C38.7173 26.5187 38.438 26.7803 38.0639 26.9673C37.6922 27.1544 37.2247 27.2479 36.6612 27.2479H34.6974V26.3033H36.5618C36.9169 26.3033 37.2057 26.2524 37.4283 26.1506C37.6532 26.0488 37.8177 25.9008 37.9219 25.7067C38.026 25.5125 38.0781 25.2794 38.0781 25.0071C38.0781 24.7325 38.0249 24.4946 37.9183 24.2933C37.8142 24.0921 37.6496 23.9382 37.4247 23.8317C37.2022 23.7228 36.9098 23.6683 36.5476 23.6683H35.1697V30H34.0724ZM37.6626 26.7188L39.4595 30H38.2095L36.4482 26.7188H37.6626ZM43.6151 22.7273V30H42.5178V22.7273H43.6151ZM47.2131 22.7273H48.5447L50.8601 28.3807H50.9453L53.2607 22.7273H54.5923V30H53.5483V24.7372H53.4808L51.3359 29.9893H50.4695L48.3246 24.7337H48.2571V30H47.2131V22.7273ZM58.1877 30V22.7273H62.7473V23.6719H59.285V25.8878H62.5094V26.8288H59.285V29.0554H62.79V30H58.1877ZM72.0831 22.7273V30H71.0746L67.3778 24.6662H67.3104V30H66.2131V22.7273H67.2287L70.929 28.0682H70.9964V22.7273H72.0831ZM75.3251 23.6719V22.7273H80.9537V23.6719H78.6845V30H77.5907V23.6719H75.3251ZM88.1641 24.6378C88.1262 24.3016 87.9699 24.0412 87.6953 23.8565C87.4207 23.6695 87.075 23.576 86.6584 23.576C86.3601 23.576 86.102 23.6233 85.8842 23.718C85.6664 23.8104 85.4972 23.9382 85.3764 24.1016C85.258 24.2625 85.1989 24.446 85.1989 24.652C85.1989 24.8248 85.2391 24.974 85.3196 25.0994C85.4025 25.2249 85.5102 25.3303 85.6428 25.4155C85.7777 25.4983 85.9221 25.5682 86.076 25.625C86.2299 25.6795 86.3778 25.7244 86.5199 25.7599L87.2301 25.9446C87.4621 26.0014 87.7 26.0784 87.9439 26.1754C88.1877 26.2725 88.4138 26.4003 88.6222 26.5589C88.8305 26.7176 88.9986 26.9141 89.1264 27.1484C89.2566 27.3828 89.3217 27.6634 89.3217 27.9901C89.3217 28.402 89.2152 28.7678 89.0021 29.0874C88.7914 29.407 88.4848 29.6591 88.0824 29.8438C87.6823 30.0284 87.1982 30.1207 86.63 30.1207C86.0855 30.1207 85.6143 30.0343 85.2166 29.8615C84.8189 29.6887 84.5076 29.4437 84.2827 29.1264C84.0578 28.8068 83.9335 28.428 83.9098 27.9901H85.0107C85.032 28.2528 85.1172 28.4718 85.2663 28.647C85.4179 28.8198 85.6108 28.9489 85.8452 29.0341C86.0819 29.117 86.3411 29.1584 86.6229 29.1584C86.933 29.1584 87.2088 29.1098 87.4503 29.0128C87.6941 28.9134 87.8859 28.776 88.0256 28.6009C88.1652 28.4233 88.2351 28.2161 88.2351 27.9794C88.2351 27.764 88.1735 27.5876 88.0504 27.4503C87.9297 27.313 87.7652 27.1993 87.5568 27.1094C87.3509 27.0194 87.1177 26.9401 86.8572 26.8714L85.9979 26.6371C85.4155 26.4785 84.9538 26.2453 84.6129 25.9375C84.2744 25.6297 84.1051 25.2225 84.1051 24.7159C84.1051 24.2969 84.2188 23.9311 84.446 23.6186C84.6733 23.3061 84.9811 23.0634 85.3693 22.8906C85.7576 22.7154 86.1955 22.6278 86.6832 22.6278C87.1757 22.6278 87.6101 22.7143 87.9865 22.8871C88.3653 23.0599 88.6636 23.2978 88.8814 23.6009C89.0992 23.9015 89.2128 24.2472 89.2223 24.6378H88.1641Z" fill="white"/>
<path d="M52.1865 9.52985L44.2026 1L36 10M40.7899 4.90463L47.7834 4.90477" stroke="#0BD3FF" stroke-width="1.5" stroke-linejoin="round"/>
<path d="M59.9512 51L52.0767 42L45.1865 50.5299L41.1946 46.2649L37.2026 42L33.1013 46.5L29 51" stroke="#1EB8E9" stroke-width="1.5" stroke-linejoin="round"/>
</svg>
