<svg width="81" height="52" viewBox="0 0 81 52" fill="none" xmlns="http://www.w3.org/2000/svg">
<path d="M7.4446 26.3636C7.4446 27.1402 7.30256 27.8078 7.01847 28.3665C6.73438 28.9228 6.34493 29.3513 5.85014 29.652C5.35772 29.9503 4.79782 30.0994 4.17045 30.0994C3.54072 30.0994 2.97846 29.9503 2.48366 29.652C1.99124 29.3513 1.60298 28.9216 1.31889 28.3629C1.0348 27.8042 0.892756 27.1378 0.892756 26.3636C0.892756 25.5871 1.0348 24.9207 1.31889 24.3643C1.60298 23.8056 1.99124 23.3771 2.48366 23.0788C2.97846 22.7782 3.54072 22.6278 4.17045 22.6278C4.79782 22.6278 5.35772 22.7782 5.85014 23.0788C6.34493 23.3771 6.73438 23.8056 7.01847 24.3643C7.30256 24.9207 7.4446 25.5871 7.4446 26.3636ZM6.35795 26.3636C6.35795 25.7718 6.26207 25.2734 6.07031 24.8686C5.88092 24.4614 5.6205 24.1536 5.28906 23.9453C4.95999 23.7346 4.58712 23.6293 4.17045 23.6293C3.75142 23.6293 3.37737 23.7346 3.0483 23.9453C2.71922 24.1536 2.45881 24.4614 2.26705 24.8686C2.07765 25.2734 1.98295 25.7718 1.98295 26.3636C1.98295 26.9555 2.07765 27.455 2.26705 27.8622C2.45881 28.267 2.71922 28.5748 3.0483 28.7855C3.37737 28.9938 3.75142 29.098 4.17045 29.098C4.58712 29.098 4.95999 28.9938 5.28906 28.7855C5.6205 28.5748 5.88092 28.267 6.07031 27.8622C6.26207 27.455 6.35795 26.9555 6.35795 26.3636ZM10.1415 23.6719V22.7273H15.7701V23.6719H13.5009V30H12.4071V23.6719H10.1415ZM19.0138 30V22.7273H20.1112V25.8878H23.7369V22.7273H24.8377V30H23.7369V26.8288H20.1112V30H19.0138ZM28.4357 30V22.7273H32.9954V23.6719H29.533V25.8878H32.7575V26.8288H29.533V29.0554H33.038V30H28.4357ZM36.4611 30V22.7273H39.0534C39.6169 22.7273 40.0845 22.8243 40.4561 23.0185C40.8302 23.2126 41.1096 23.4813 41.2942 23.8246C41.4789 24.1655 41.5712 24.5597 41.5712 25.0071C41.5712 25.4522 41.4777 25.844 41.2907 26.1825C41.106 26.5187 40.8266 26.7803 40.4526 26.9673C40.0809 27.1544 39.6133 27.2479 39.0499 27.2479H37.0861V26.3033H38.9505C39.3056 26.3033 39.5944 26.2524 39.8169 26.1506C40.0418 26.0488 40.2064 25.9008 40.3105 25.7067C40.4147 25.5125 40.4668 25.2794 40.4668 25.0071C40.4668 24.7325 40.4135 24.4946 40.307 24.2933C40.2028 24.0921 40.0383 23.9382 39.8134 23.8317C39.5908 23.7228 39.2985 23.6683 38.9363 23.6683H37.5584V30H36.4611ZM40.0513 26.7188L41.8482 30H40.5982L38.8368 26.7188H40.0513ZM48.873 24.6378C48.8352 24.3016 48.6789 24.0412 48.4043 23.8565C48.1297 23.6695 47.784 23.576 47.3674 23.576C47.0691 23.576 46.811 23.6233 46.5932 23.718C46.3754 23.8104 46.2061 23.9382 46.0854 24.1016C45.967 24.2625 45.9078 24.446 45.9078 24.652C45.9078 24.8248 45.9481 24.974 46.0286 25.0994C46.1114 25.2249 46.2192 25.3303 46.3517 25.4155C46.4867 25.4983 46.6311 25.5682 46.785 25.625C46.9389 25.6795 47.0868 25.7244 47.2289 25.7599L47.9391 25.9446C48.1711 26.0014 48.409 26.0784 48.6529 26.1754C48.8967 26.2725 49.1228 26.4003 49.3311 26.5589C49.5395 26.7176 49.7076 26.9141 49.8354 27.1484C49.9656 27.3828 50.0307 27.6634 50.0307 27.9901C50.0307 28.402 49.9242 28.7678 49.7111 29.0874C49.5004 29.407 49.1938 29.6591 48.7914 29.8438C48.3913 30.0284 47.9071 30.1207 47.339 30.1207C46.7944 30.1207 46.3233 30.0343 45.9256 29.8615C45.5279 29.6887 45.2166 29.4437 44.9917 29.1264C44.7667 28.8068 44.6425 28.428 44.6188 27.9901H45.7196C45.7409 28.2528 45.8262 28.4718 45.9753 28.647C46.1268 28.8198 46.3198 28.9489 46.5542 29.0341C46.7909 29.117 47.0501 29.1584 47.3319 29.1584C47.642 29.1584 47.9178 29.1098 48.1593 29.0128C48.4031 28.9134 48.5949 28.776 48.7346 28.6009C48.8742 28.4233 48.9441 28.2161 48.9441 27.9794C48.9441 27.764 48.8825 27.5876 48.7594 27.4503C48.6387 27.313 48.4741 27.1993 48.2658 27.1094C48.0598 27.0194 47.8266 26.9401 47.5662 26.8714L46.7069 26.6371C46.1245 26.4785 45.6628 26.2453 45.3219 25.9375C44.9834 25.6297 44.8141 25.2225 44.8141 24.7159C44.8141 24.2969 44.9277 23.9311 45.155 23.6186C45.3823 23.3061 45.69 23.0634 46.0783 22.8906C46.4666 22.7154 46.9045 22.6278 47.3922 22.6278C47.8846 22.6278 48.3191 22.7143 48.6955 22.8871C49.0743 23.0599 49.3726 23.2978 49.5904 23.6009C49.8082 23.9015 49.9218 24.2472 49.9313 24.6378H48.873ZM61.9551 24.6378C61.9172 24.3016 61.7609 24.0412 61.4863 23.8565C61.2117 23.6695 60.8661 23.576 60.4494 23.576C60.1511 23.576 59.8931 23.6233 59.6752 23.718C59.4574 23.8104 59.2882 23.9382 59.1674 24.1016C59.0491 24.2625 58.9899 24.446 58.9899 24.652C58.9899 24.8248 59.0301 24.974 59.1106 25.0994C59.1935 25.2249 59.3012 25.3303 59.4338 25.4155C59.5687 25.4983 59.7131 25.5682 59.867 25.625C60.0209 25.6795 60.1689 25.7244 60.3109 25.7599L61.0211 25.9446C61.2531 26.0014 61.4911 26.0784 61.7349 26.1754C61.9788 26.2725 62.2048 26.4003 62.4132 26.5589C62.6215 26.7176 62.7896 26.9141 62.9174 27.1484C63.0476 27.3828 63.1127 27.6634 63.1127 27.9901C63.1127 28.402 63.0062 28.7678 62.7931 29.0874C62.5824 29.407 62.2759 29.6591 61.8734 29.8438C61.4733 30.0284 60.9892 30.1207 60.421 30.1207C59.8765 30.1207 59.4054 30.0343 59.0076 29.8615C58.6099 29.6887 58.2986 29.4437 58.0737 29.1264C57.8488 28.8068 57.7245 28.428 57.7008 27.9901H58.8017C58.823 28.2528 58.9082 28.4718 59.0574 28.647C59.2089 28.8198 59.4018 28.9489 59.6362 29.0341C59.8729 29.117 60.1322 29.1584 60.4139 29.1584C60.724 29.1584 60.9998 29.1098 61.2413 29.0128C61.4851 28.9134 61.6769 28.776 61.8166 28.6009C61.9563 28.4233 62.0261 28.2161 62.0261 27.9794C62.0261 27.764 61.9645 27.5876 61.8414 27.4503C61.7207 27.313 61.5562 27.1993 61.3478 27.1094C61.1419 27.0194 60.9087 26.9401 60.6483 26.8714L59.7889 26.6371C59.2065 26.4785 58.7449 26.2453 58.4039 25.9375C58.0654 25.6297 57.8961 25.2225 57.8961 24.7159C57.8961 24.2969 58.0098 23.9311 58.237 23.6186C58.4643 23.3061 58.7721 23.0634 59.1603 22.8906C59.5486 22.7154 59.9866 22.6278 60.4743 22.6278C60.9667 22.6278 61.4011 22.7143 61.7775 22.8871C62.1563 23.0599 62.4546 23.2978 62.6724 23.6009C62.8902 23.9015 63.0038 24.2472 63.0133 24.6378H61.9551ZM66.9798 30H65.815L68.4322 22.7273H69.6999L72.3171 30H71.1523L69.0962 24.0483H69.0394L66.9798 30ZM67.1751 27.152H70.9535V28.0753H67.1751V27.152ZM74.0641 22.7273H75.3105L77.2104 26.0334H77.2885L79.1884 22.7273H80.4348L77.7963 27.1449V30H76.7026V27.1449L74.0641 22.7273Z" fill="white"/>
<path d="M47.1865 9.52985L39.2026 1L31 10M35.7899 4.90463L42.7834 4.90477" stroke="#1EB8E9" stroke-width="1.5" stroke-linejoin="round"/>
<path d="M54.9512 51L47.0767 42L40.1865 50.5299L36.1946 46.2649L32.2026 42L28.1013 46.5L24 51" stroke="#1EB8E9" stroke-width="1.5" stroke-linejoin="round"/>
</svg>
