<svg width="35" height="24" viewBox="0 0 35 24" fill="none" xmlns="http://www.w3.org/2000/svg">
<path d="M27.062 23.866C22.83 23.866 19.656 20.83 19.656 15.31C19.656 7.812 24.624 2.844 29.224 0.589998L31.892 3.396C29.638 4.316 25.36 8.134 25.268 11.538C25.82 10.848 27.384 10.342 28.856 10.342C31.708 10.342 34.376 12.504 34.376 16.414C34.376 20.968 31.248 23.866 27.062 23.866ZM8.11 23.866C3.878 23.866 0.704 20.83 0.704 15.31C0.704 7.812 5.672 2.844 10.272 0.589998L12.94 3.396C10.686 4.316 6.408 8.134 6.316 11.538C6.868 10.848 8.432 10.342 9.904 10.342C12.756 10.342 15.424 12.504 15.424 16.414C15.424 20.968 12.296 23.866 8.11 23.866Z" fill="#BE24A5"/>
</svg>
