<svg width="29" height="21" viewBox="0 0 29 21" fill="none" xmlns="http://www.w3.org/2000/svg">
<path d="M25.024 1.69199V3.072C25.024 3.19466 24.9933 3.28666 24.932 3.348C24.8093 3.532 24.656 3.624 24.472 3.624C24.1653 3.624 23.7973 3.68533 23.368 3.80799C23 3.93066 22.6013 4.14533 22.172 4.452C21.7427 4.75866 21.344 5.188 20.976 5.74C20.6693 6.23066 20.4547 6.90533 20.332 7.764C20.2707 8.00933 20.24 8.316 20.24 8.684C20.3013 8.99066 20.424 9.20533 20.608 9.32799C20.7307 9.45066 20.9453 9.48133 21.252 9.42C21.62 9.29733 21.896 9.236 22.08 9.236C23.0613 9.236 23.8893 9.38933 24.564 9.696C25.2387 9.94133 25.852 10.3093 26.404 10.8C27.508 11.8427 28.06 13.2533 28.06 15.032C28.06 16.3813 27.5693 17.5773 26.588 18.62C25.484 19.7853 24.0733 20.368 22.356 20.368C20.4547 20.368 18.9213 19.7547 17.756 18.528C16.652 17.3013 15.9773 15.7987 15.732 14.02C15.6093 13.4067 15.5173 12.7933 15.456 12.18C15.456 11.5667 15.5173 10.9533 15.64 10.34C15.8853 8.684 16.376 7.18133 17.112 5.832C17.9093 4.48266 19.0133 3.348 20.424 2.428C20.792 2.18266 21.16 1.968 21.528 1.784C21.9573 1.53866 22.3867 1.35466 22.816 1.23199C22.8773 1.23199 23.0613 1.20133 23.368 1.14C23.6747 1.07866 23.9813 1.01733 24.288 0.955998C24.4107 0.955998 24.5333 0.986665 24.656 1.048C24.9013 1.17066 25.024 1.38533 25.024 1.69199ZM9.568 1.69199V3.072C9.568 3.19466 9.53733 3.28666 9.476 3.348C9.35333 3.532 9.2 3.624 9.016 3.624C8.70933 3.624 8.34133 3.68533 7.912 3.80799C7.544 3.93066 7.14533 4.14533 6.716 4.452C6.28667 4.75866 5.888 5.188 5.52 5.74C5.21333 6.23066 4.99867 6.90533 4.876 7.764C4.81467 8.00933 4.784 8.316 4.784 8.684C4.84533 8.99066 4.968 9.20533 5.152 9.32799C5.27467 9.45066 5.48933 9.48133 5.796 9.42C6.164 9.29733 6.44 9.236 6.624 9.236C7.60533 9.236 8.43333 9.38933 9.108 9.696C9.78267 9.94133 10.396 10.3093 10.948 10.8C12.052 11.8427 12.604 13.2533 12.604 15.032C12.604 16.3813 12.1133 17.5773 11.132 18.62C10.028 19.7853 8.61733 20.368 6.9 20.368C4.99867 20.368 3.46533 19.7547 2.3 18.528C1.196 17.3013 0.521333 15.7987 0.276 14.02C0.153333 13.4067 0.0613333 12.7933 0 12.18C0 11.5667 0.0613333 10.9533 0.184 10.34C0.429333 8.684 0.92 7.18133 1.656 5.832C2.45333 4.48266 3.55733 3.348 4.968 2.428C5.336 2.18266 5.704 1.968 6.072 1.784C6.50133 1.53866 6.93067 1.35466 7.36 1.23199C7.42133 1.23199 7.60533 1.20133 7.912 1.14C8.21867 1.07866 8.52533 1.01733 8.832 0.955998C8.95467 0.955998 9.07733 0.986665 9.2 1.048C9.44533 1.17066 9.568 1.38533 9.568 1.69199Z" fill="#1EB8E9"/>
</svg>
