<svg width="44" height="52" viewBox="0 0 44 52" fill="none" xmlns="http://www.w3.org/2000/svg">
<path d="M4.76562 24.6378C4.72775 24.3016 4.5715 24.0412 4.29688 23.8565C4.02225 23.6695 3.67661 23.576 3.25994 23.576C2.96165 23.576 2.7036 23.6233 2.4858 23.718C2.26799 23.8104 2.09872 23.9382 1.97798 24.1016C1.85961 24.2625 1.80043 24.446 1.80043 24.652C1.80043 24.8248 1.84067 24.974 1.92116 25.0994C2.00402 25.2249 2.11174 25.3303 2.24432 25.4155C2.37926 25.4983 2.52367 25.5682 2.67756 25.625C2.83144 25.6795 2.9794 25.7244 3.12145 25.7599L3.83168 25.9446C4.06368 26.0014 4.30161 26.0784 4.54545 26.1754C4.7893 26.2725 5.01539 26.4003 5.22372 26.5589C5.43206 26.7176 5.60014 26.9141 5.72798 27.1484C5.85819 27.3828 5.9233 27.6634 5.9233 27.9901C5.9233 28.402 5.81676 28.7678 5.60369 29.0874C5.39299 29.407 5.08641 29.6591 4.68395 29.8438C4.28385 30.0284 3.79972 30.1207 3.23153 30.1207C2.68703 30.1207 2.21591 30.0343 1.81818 29.8615C1.42045 29.6887 1.10914 29.4437 0.884233 29.1264C0.659328 28.8068 0.535038 28.428 0.511364 27.9901H1.61222C1.63352 28.2528 1.71875 28.4718 1.8679 28.647C2.01941 28.8198 2.21236 28.9489 2.44673 29.0341C2.68348 29.117 2.94271 29.1584 3.22443 29.1584C3.53456 29.1584 3.81037 29.1098 4.05185 29.0128C4.29569 28.9134 4.48745 28.776 4.62713 28.6009C4.76681 28.4233 4.83665 28.2161 4.83665 27.9794C4.83665 27.764 4.77509 27.5876 4.65199 27.4503C4.53125 27.313 4.36671 27.1993 4.15838 27.1094C3.95241 27.0194 3.71922 26.9401 3.45881 26.8714L2.59943 26.6371C2.01705 26.4785 1.5554 26.2453 1.21449 25.9375C0.875947 25.6297 0.706676 25.2225 0.706676 24.7159C0.706676 24.2969 0.820313 23.9311 1.04759 23.6186C1.27486 23.3061 1.58262 23.0634 1.97088 22.8906C2.35914 22.7154 2.79711 22.6278 3.2848 22.6278C3.77723 22.6278 4.21165 22.7143 4.58807 22.8871C4.96686 23.0599 5.26515 23.2978 5.48295 23.6009C5.70076 23.9015 5.81439 24.2472 5.82386 24.6378H4.76562ZM9.23455 30V22.7273H10.3319V26.2003H10.4206L13.4711 22.7273H14.8525L11.9192 26.0014L14.8631 30H13.5421L11.1912 26.7507L10.3319 27.7379V30H9.23455ZM18.9725 22.7273V30H17.8752V22.7273H18.9725ZM22.5705 30V22.7273H23.6678V29.0554H26.9632V30H22.5705ZM30.215 30V22.7273H31.3123V29.0554H34.6078V30H30.215ZM41.8262 24.6378C41.7883 24.3016 41.632 24.0412 41.3574 23.8565C41.0828 23.6695 40.7372 23.576 40.3205 23.576C40.0222 23.576 39.7641 23.6233 39.5463 23.718C39.3285 23.8104 39.1593 23.9382 39.0385 24.1016C38.9202 24.2625 38.861 24.446 38.861 24.652C38.861 24.8248 38.9012 24.974 38.9817 25.0994C39.0646 25.2249 39.1723 25.3303 39.3049 25.4155C39.4398 25.4983 39.5842 25.5682 39.7381 25.625C39.892 25.6795 40.04 25.7244 40.182 25.7599L40.8922 25.9446C41.1242 26.0014 41.3622 26.0784 41.606 26.1754C41.8498 26.2725 42.0759 26.4003 42.2843 26.5589C42.4926 26.7176 42.6607 26.9141 42.7885 27.1484C42.9187 27.3828 42.9838 27.6634 42.9838 27.9901C42.9838 28.402 42.8773 28.7678 42.6642 29.0874C42.4535 29.407 42.147 29.6591 41.7445 29.8438C41.3444 30.0284 40.8603 30.1207 40.2921 30.1207C39.7476 30.1207 39.2765 30.0343 38.8787 29.8615C38.481 29.6887 38.1697 29.4437 37.9448 29.1264C37.7199 28.8068 37.5956 28.428 37.5719 27.9901H38.6728C38.6941 28.2528 38.7793 28.4718 38.9284 28.647C39.08 28.8198 39.2729 28.9489 39.5073 29.0341C39.744 29.117 40.0033 29.1584 40.285 29.1584C40.5951 29.1584 40.8709 29.1098 41.1124 29.0128C41.3562 28.9134 41.548 28.776 41.6877 28.6009C41.8274 28.4233 41.8972 28.2161 41.8972 27.9794C41.8972 27.764 41.8356 27.5876 41.7125 27.4503C41.5918 27.313 41.4273 27.1993 41.2189 27.1094C41.013 27.0194 40.7798 26.9401 40.5194 26.8714L39.66 26.6371C39.0776 26.4785 38.6159 26.2453 38.275 25.9375C37.9365 25.6297 37.7672 25.2225 37.7672 24.7159C37.7672 24.2969 37.8809 23.9311 38.1081 23.6186C38.3354 23.3061 38.6432 23.0634 39.0314 22.8906C39.4197 22.7154 39.8577 22.6278 40.3453 22.6278C40.8378 22.6278 41.2722 22.7143 41.6486 22.8871C42.0274 23.0599 42.3257 23.2978 42.5435 23.6009C42.7613 23.9015 42.8749 24.2472 42.8844 24.6378H41.8262Z" fill="white"/>
<path d="M29.1865 9.52985L21.2026 1L13 10M17.7899 4.90463L24.7834 4.90477" stroke="#870864" stroke-width="1.5" stroke-linejoin="round"/>
<path d="M36.9512 51L29.0767 42L22.1865 50.5299L18.1946 46.2649L14.2026 42L10.1013 46.5L6 51" stroke="#870864" stroke-width="1.5" stroke-linejoin="round"/>
</svg>
