<svg width="88" height="52" viewBox="0 0 88 52" fill="none" xmlns="http://www.w3.org/2000/svg">
<path d="M0.635653 23.6719V22.7273H6.2642V23.6719H3.99503V30H2.90128V23.6719H0.635653ZM9.50799 30V22.7273H14.0676V23.6719H10.6053V25.8878H13.8297V26.8288H10.6053V29.0554H14.1103V30H9.50799ZM23.5739 25.0923H22.4659C22.4233 24.8556 22.344 24.6473 22.228 24.4673C22.112 24.2874 21.9699 24.1347 21.8018 24.0092C21.6338 23.8838 21.4455 23.7891 21.2372 23.7251C21.0313 23.6612 20.8123 23.6293 20.5803 23.6293C20.1612 23.6293 19.786 23.7346 19.4545 23.9453C19.1255 24.156 18.8651 24.465 18.6733 24.8722C18.4839 25.2794 18.3892 25.7765 18.3892 26.3636C18.3892 26.9555 18.4839 27.455 18.6733 27.8622C18.8651 28.2694 19.1267 28.5772 19.4581 28.7855C19.7895 28.9938 20.1624 29.098 20.5767 29.098C20.8063 29.098 21.0241 29.0672 21.2301 29.0057C21.4384 28.9418 21.6267 28.8482 21.7947 28.7251C21.9628 28.602 22.1049 28.4517 22.2209 28.2741C22.3393 28.0942 22.4209 27.8883 22.4659 27.6562L23.5739 27.6598C23.5147 28.0173 23.3999 28.3464 23.2294 28.647C23.0613 28.9453 22.8447 29.2034 22.5795 29.4212C22.3168 29.6366 22.0161 29.8035 21.6776 29.9219C21.339 30.0402 20.9697 30.0994 20.5696 30.0994C19.9399 30.0994 19.3788 29.9503 18.8864 29.652C18.3939 29.3513 18.0057 28.9216 17.7216 28.3629C17.4399 27.8042 17.299 27.1378 17.299 26.3636C17.299 25.5871 17.4411 24.9207 17.7251 24.3643C18.0092 23.8056 18.3975 23.3771 18.8899 23.0788C19.3823 22.7782 19.9422 22.6278 20.5696 22.6278C20.9555 22.6278 21.3153 22.6835 21.6491 22.7947C21.9853 22.9036 22.2872 23.0646 22.5547 23.2777C22.8222 23.4884 23.0436 23.7464 23.2188 24.0518C23.3939 24.3549 23.5123 24.7017 23.5739 25.0923ZM26.8869 30V22.7273H27.9842V25.8878H31.6099V22.7273H32.7108V30H31.6099V26.8288H27.9842V30H26.8869ZM42.1788 22.7273V30H41.1703L37.4735 24.6662H37.4061V30H36.3088V22.7273H37.3244L41.0247 28.0682H41.0922V22.7273H42.1788ZM52.0969 26.3636C52.0969 27.1402 51.9549 27.8078 51.6708 28.3665C51.3867 28.9228 50.9973 29.3513 50.5025 29.652C50.0101 29.9503 49.4502 30.0994 48.8228 30.0994C48.1931 30.0994 47.6308 29.9503 47.136 29.652C46.6436 29.3513 46.2553 28.9216 45.9712 28.3629C45.6871 27.8042 45.5451 27.1378 45.5451 26.3636C45.5451 25.5871 45.6871 24.9207 45.9712 24.3643C46.2553 23.8056 46.6436 23.3771 47.136 23.0788C47.6308 22.7782 48.1931 22.6278 48.8228 22.6278C49.4502 22.6278 50.0101 22.7782 50.5025 23.0788C50.9973 23.3771 51.3867 23.8056 51.6708 24.3643C51.9549 24.9207 52.0969 25.5871 52.0969 26.3636ZM51.0103 26.3636C51.0103 25.7718 50.9144 25.2734 50.7227 24.8686C50.5333 24.4614 50.2728 24.1536 49.9414 23.9453C49.6123 23.7346 49.2395 23.6293 48.8228 23.6293C48.4038 23.6293 48.0297 23.7346 47.7006 23.9453C47.3716 24.1536 47.1112 24.4614 46.9194 24.8686C46.73 25.2734 46.6353 25.7718 46.6353 26.3636C46.6353 26.9555 46.73 27.455 46.9194 27.8622C47.1112 28.267 47.3716 28.5748 47.7006 28.7855C48.0297 28.9938 48.4038 29.098 48.8228 29.098C49.2395 29.098 49.6123 28.9938 49.9414 28.7855C50.2728 28.5748 50.5333 28.267 50.7227 27.8622C50.9144 27.455 51.0103 26.9555 51.0103 26.3636ZM55.465 30V22.7273H56.5623V29.0554H59.8578V30H55.465ZM69.1438 26.3636C69.1438 27.1402 69.0018 27.8078 68.7177 28.3665C68.4336 28.9228 68.0442 29.3513 67.5494 29.652C67.0569 29.9503 66.497 30.0994 65.8697 30.0994C65.2399 30.0994 64.6777 29.9503 64.1829 29.652C63.6905 29.3513 63.3022 28.9216 63.0181 28.3629C62.734 27.8042 62.592 27.1378 62.592 26.3636C62.592 25.5871 62.734 24.9207 63.0181 24.3643C63.3022 23.8056 63.6905 23.3771 64.1829 23.0788C64.6777 22.7782 65.2399 22.6278 65.8697 22.6278C66.497 22.6278 67.0569 22.7782 67.5494 23.0788C68.0442 23.3771 68.4336 23.8056 68.7177 24.3643C69.0018 24.9207 69.1438 25.5871 69.1438 26.3636ZM68.0572 26.3636C68.0572 25.7718 67.9613 25.2734 67.7695 24.8686C67.5801 24.4614 67.3197 24.1536 66.9883 23.9453C66.6592 23.7346 66.2863 23.6293 65.8697 23.6293C65.4506 23.6293 65.0766 23.7346 64.7475 23.9453C64.4184 24.1536 64.158 24.4614 63.9663 24.8686C63.7769 25.2734 63.6822 25.7718 63.6822 26.3636C63.6822 26.9555 63.7769 27.455 63.9663 27.8622C64.158 28.267 64.4184 28.5748 64.7475 28.7855C65.0766 28.9938 65.4506 29.098 65.8697 29.098C66.2863 29.098 66.6592 28.9938 66.9883 28.7855C67.3197 28.5748 67.5801 28.267 67.7695 27.8622C67.9613 27.455 68.0572 26.9555 68.0572 26.3636ZM77.4338 25.0249C77.3651 24.8094 77.2728 24.6165 77.1568 24.446C77.0431 24.2732 76.907 24.1264 76.7484 24.0057C76.5898 23.8826 76.4087 23.7891 76.2051 23.7251C76.0038 23.6612 75.7825 23.6293 75.541 23.6293C75.1315 23.6293 74.7621 23.7346 74.4331 23.9453C74.104 24.156 73.8436 24.465 73.6518 24.8722C73.4624 25.277 73.3677 25.773 73.3677 26.3601C73.3677 26.9496 73.4636 27.4479 73.6554 27.8551C73.8471 28.2623 74.1099 28.5713 74.4437 28.782C74.7775 28.9927 75.1575 29.098 75.5836 29.098C75.979 29.098 76.3234 29.0175 76.617 28.8565C76.9129 28.6955 77.1414 28.4683 77.3024 28.1747C77.4657 27.8788 77.5474 27.5308 77.5474 27.1307L77.8315 27.1839H75.7505V26.2784H78.6092V27.1058C78.6092 27.7166 78.479 28.2469 78.2186 28.6967C77.9605 29.1442 77.603 29.4898 77.1461 29.7337C76.6916 29.9775 76.1708 30.0994 75.5836 30.0994C74.9255 30.0994 74.3478 29.9479 73.8507 29.6449C73.3559 29.3419 72.97 28.9122 72.693 28.3558C72.416 27.7971 72.2775 27.1342 72.2775 26.3672C72.2775 25.7872 72.358 25.2663 72.519 24.8047C72.68 24.343 72.9061 23.9512 73.1973 23.6293C73.4908 23.3049 73.8353 23.0575 74.2306 22.8871C74.6284 22.7143 75.0628 22.6278 75.5339 22.6278C75.9269 22.6278 76.2927 22.6858 76.6312 22.8018C76.9721 22.9179 77.2752 23.0824 77.5403 23.2955C77.8078 23.5085 78.0292 23.7618 78.2044 24.0554C78.3796 24.3466 78.4979 24.6697 78.5595 25.0249H77.4338ZM81.1969 22.7273H82.4434L84.3432 26.0334H84.4213L86.3212 22.7273H87.5676L84.9292 27.1449V30H83.8354V27.1449L81.1969 22.7273Z" fill="white"/>
<path d="M51.1865 9.52985L43.2026 1L35 10M39.7899 4.90463L46.7834 4.90477" stroke="#870864" stroke-width="1.5" stroke-linejoin="round"/>
<path d="M58.9512 51L51.0767 42L44.1865 50.5299L40.1946 46.2649L36.2026 42L32.1013 46.5L28 51" stroke="#870864" stroke-width="1.5" stroke-linejoin="round"/>
</svg>
